<svg version="1.0" preserveAspectRatio="xMidYMid meet" viewBox="7.250002500000001 164.750246045994 341.25 81.749998038" zoomAndPan="magnify" xmlns:xlink="http://www.w3.org/1999/xlink" xmlns="http://www.w3.org/2000/svg" style="max-height: 500px" width="341.25px" height="81.749998038px" transform="rotate(0) scale(1, 1)"><defs><g/><clipPath id="2676970563"><path clip-rule="nonzero" d="M 239.578125 168.574219 L 305.984375 168.574219 L 305.984375 236.074219 L 239.578125 236.074219 Z M 239.578125 168.574219"/></clipPath><clipPath id="298b2e2024"><path clip-rule="nonzero" d="M 272.78125 168.574219 L 305.984375 236.25 L 239.578125 236.25 Z M 272.78125 168.574219"/></clipPath><clipPath id="9781d95caa"><path clip-rule="nonzero" d="M 277.171875 168.574219 L 343.578125 168.574219 L 343.578125 236.074219 L 277.171875 236.074219 Z M 277.171875 168.574219"/></clipPath><clipPath id="b1f2795c54"><path clip-rule="nonzero" d="M 310.375 168.574219 L 343.578125 236.25 L 277.171875 236.25 Z M 310.375 168.574219"/></clipPath></defs><g fill-opacity="1" fill="#ffffff"><g transform="translate(9.848528, 200.624987)"><g><path d="M 10.4375 -16.921875 C 12.1875 -16.921875 13.632812 -16.203125 14.78125 -14.765625 C 15.9375 -13.328125 16.515625 -11.144531 16.515625 -8.21875 C 16.515625 -6.300781 16.1875 -4.695312 15.53125 -3.40625 C 14.882812 -2.113281 14.015625 -1.144531 12.921875 -0.5 C 11.835938 0.132812 10.65625 0.453125 9.375 0.453125 C 8.3125 0.453125 7.28125 0.148438 6.28125 -0.453125 C 5.289062 -1.066406 4.550781 -1.972656 4.0625 -3.171875 L 4.703125 -2.8125 C 5.234375 -1.957031 5.894531 -1.320312 6.6875 -0.90625 C 7.476562 -0.488281 8.289062 -0.28125 9.125 -0.28125 C 10.550781 -0.28125 11.617188 -0.925781 12.328125 -2.21875 C 13.046875 -3.507812 13.40625 -5.507812 13.40625 -8.21875 C 13.40625 -9.945312 13.265625 -11.382812 12.984375 -12.53125 C 12.710938 -13.6875 12.285156 -14.546875 11.703125 -15.109375 C 11.128906 -15.679688 10.394531 -15.96875 9.5 -15.96875 C 8.519531 -15.96875 7.609375 -15.523438 6.765625 -14.640625 C 5.921875 -13.753906 5.40625 -12.457031 5.21875 -10.75 L 4.828125 -11.203125 C 5.066406 -13.015625 5.703125 -14.421875 6.734375 -15.421875 C 7.765625 -16.421875 9 -16.921875 10.4375 -16.921875 Z M 5.4375 -25.0625 L 5.4375 -1.65625 C 5.164062 -1.425781 4.882812 -1.1875 4.59375 -0.9375 C 4.300781 -0.695312 4.015625 -0.457031 3.734375 -0.21875 C 3.460938 0.0078125 3.175781 0.253906 2.875 0.515625 L 2.34375 0.28125 C 2.425781 -0.0078125 2.484375 -0.3125 2.515625 -0.625 C 2.546875 -0.9375 2.5625 -1.25 2.5625 -1.5625 L 2.5625 -21.21875 C 2.5625 -22.175781 2.390625 -22.882812 2.046875 -23.34375 C 1.703125 -23.800781 1.0625 -24.03125 0.125 -24.03125 L 0.125 -24.703125 C 0.8125 -24.640625 1.472656 -24.609375 2.109375 -24.609375 C 2.734375 -24.609375 3.328125 -24.644531 3.890625 -24.71875 C 4.453125 -24.789062 4.96875 -24.90625 5.4375 -25.0625 Z M 5.4375 -25.0625"/></g></g></g><g fill-opacity="1" fill="#ffffff"><g transform="translate(27.860097, 200.624987)"><g><path d="M 6.015625 -25.09375 L 6.015625 -2.96875 C 6.015625 -2.070312 6.203125 -1.460938 6.578125 -1.140625 C 6.953125 -0.828125 7.578125 -0.671875 8.453125 -0.671875 L 8.453125 0 C 8.085938 -0.0195312 7.535156 -0.046875 6.796875 -0.078125 C 6.066406 -0.109375 5.328125 -0.125 4.578125 -0.125 C 3.847656 -0.125 3.109375 -0.109375 2.359375 -0.078125 C 1.617188 -0.046875 1.066406 -0.0195312 0.703125 0 L 0.703125 -0.671875 C 1.578125 -0.671875 2.203125 -0.828125 2.578125 -1.140625 C 2.953125 -1.460938 3.140625 -2.070312 3.140625 -2.96875 L 3.140625 -21.25 C 3.140625 -22.207031 2.96875 -22.914062 2.625 -23.375 C 2.28125 -23.832031 1.640625 -24.0625 0.703125 -24.0625 L 0.703125 -24.734375 C 1.390625 -24.671875 2.050781 -24.640625 2.6875 -24.640625 C 3.300781 -24.640625 3.890625 -24.675781 4.453125 -24.75 C 5.023438 -24.820312 5.546875 -24.9375 6.015625 -25.09375 Z M 6.015625 -25.09375"/></g></g></g><g fill-opacity="1" fill="#ffffff"><g transform="translate(37.009843, 200.624987)"><g><path d="M 5.46875 0.21875 C 4.59375 0.21875 3.832031 0.0546875 3.1875 -0.265625 C 2.550781 -0.597656 2.066406 -1.0625 1.734375 -1.65625 C 1.410156 -2.257812 1.25 -2.957031 1.25 -3.75 C 1.25 -4.6875 1.46875 -5.453125 1.90625 -6.046875 C 2.34375 -6.640625 2.898438 -7.117188 3.578125 -7.484375 C 4.265625 -7.847656 4.984375 -8.148438 5.734375 -8.390625 C 6.492188 -8.640625 7.210938 -8.875 7.890625 -9.09375 C 8.578125 -9.320312 9.140625 -9.585938 9.578125 -9.890625 C 10.015625 -10.191406 10.234375 -10.585938 10.234375 -11.078125 L 10.234375 -13.0625 C 10.234375 -13.957031 10.097656 -14.640625 9.828125 -15.109375 C 9.566406 -15.578125 9.210938 -15.890625 8.765625 -16.046875 C 8.316406 -16.203125 7.816406 -16.28125 7.265625 -16.28125 C 6.734375 -16.28125 6.160156 -16.207031 5.546875 -16.0625 C 4.941406 -15.914062 4.457031 -15.609375 4.09375 -15.140625 C 4.5 -15.054688 4.847656 -14.84375 5.140625 -14.5 C 5.441406 -14.15625 5.59375 -13.71875 5.59375 -13.1875 C 5.59375 -12.65625 5.421875 -12.234375 5.078125 -11.921875 C 4.742188 -11.609375 4.3125 -11.453125 3.78125 -11.453125 C 3.15625 -11.453125 2.695312 -11.648438 2.40625 -12.046875 C 2.125 -12.441406 1.984375 -12.882812 1.984375 -13.375 C 1.984375 -13.925781 2.117188 -14.375 2.390625 -14.71875 C 2.671875 -15.0625 3.023438 -15.382812 3.453125 -15.6875 C 3.941406 -16.019531 4.578125 -16.304688 5.359375 -16.546875 C 6.140625 -16.796875 7.019531 -16.921875 8 -16.921875 C 8.875 -16.921875 9.617188 -16.816406 10.234375 -16.609375 C 10.859375 -16.410156 11.375 -16.125 11.78125 -15.75 C 12.332031 -15.226562 12.691406 -14.597656 12.859375 -13.859375 C 13.035156 -13.128906 13.125 -12.253906 13.125 -11.234375 L 13.125 -2.34375 C 13.125 -1.800781 13.203125 -1.410156 13.359375 -1.171875 C 13.515625 -0.941406 13.765625 -0.828125 14.109375 -0.828125 C 14.347656 -0.828125 14.570312 -0.878906 14.78125 -0.984375 C 15 -1.097656 15.253906 -1.269531 15.546875 -1.5 L 15.90625 -0.953125 C 15.457031 -0.617188 15.03125 -0.335938 14.625 -0.109375 C 14.21875 0.109375 13.671875 0.21875 12.984375 0.21875 C 12.367188 0.21875 11.859375 0.113281 11.453125 -0.09375 C 11.046875 -0.3125 10.738281 -0.625 10.53125 -1.03125 C 10.332031 -1.445312 10.234375 -1.976562 10.234375 -2.625 C 9.660156 -1.664062 8.972656 -0.953125 8.171875 -0.484375 C 7.367188 -0.015625 6.46875 0.21875 5.46875 0.21875 Z M 6.625 -1.0625 C 7.332031 -1.0625 7.988281 -1.257812 8.59375 -1.65625 C 9.195312 -2.0625 9.742188 -2.671875 10.234375 -3.484375 L 10.234375 -9.765625 C 9.984375 -9.398438 9.613281 -9.09375 9.125 -8.84375 C 8.632812 -8.601562 8.097656 -8.359375 7.515625 -8.109375 C 6.941406 -7.867188 6.394531 -7.582031 5.875 -7.25 C 5.351562 -6.914062 4.921875 -6.484375 4.578125 -5.953125 C 4.234375 -5.421875 4.0625 -4.726562 4.0625 -3.875 C 4.0625 -3.019531 4.289062 -2.335938 4.75 -1.828125 C 5.207031 -1.316406 5.832031 -1.0625 6.625 -1.0625 Z M 6.625 -1.0625"/></g></g></g><g fill-opacity="1" fill="#ffffff"><g transform="translate(52.941929, 200.624987)"><g><path d="M 8.921875 -16.921875 C 9.609375 -16.921875 10.269531 -16.835938 10.90625 -16.671875 C 11.550781 -16.503906 12.128906 -16.25 12.640625 -15.90625 C 13.128906 -15.582031 13.5 -15.210938 13.75 -14.796875 C 14.007812 -14.378906 14.140625 -13.925781 14.140625 -13.4375 C 14.140625 -12.863281 13.976562 -12.421875 13.65625 -12.109375 C 13.34375 -11.796875 12.941406 -11.640625 12.453125 -11.640625 C 11.984375 -11.640625 11.570312 -11.78125 11.21875 -12.0625 C 10.863281 -12.34375 10.6875 -12.738281 10.6875 -13.25 C 10.6875 -13.738281 10.816406 -14.128906 11.078125 -14.421875 C 11.347656 -14.722656 11.664062 -14.921875 12.03125 -15.015625 C 11.820312 -15.390625 11.441406 -15.707031 10.890625 -15.96875 C 10.347656 -16.226562 9.769531 -16.359375 9.15625 -16.359375 C 8.625 -16.359375 8.085938 -16.226562 7.546875 -15.96875 C 7.015625 -15.707031 6.523438 -15.285156 6.078125 -14.703125 C 5.628906 -14.117188 5.265625 -13.316406 4.984375 -12.296875 C 4.710938 -11.285156 4.578125 -10.023438 4.578125 -8.515625 C 4.578125 -6.640625 4.789062 -5.144531 5.21875 -4.03125 C 5.644531 -2.925781 6.203125 -2.128906 6.890625 -1.640625 C 7.585938 -1.160156 8.351562 -0.921875 9.1875 -0.921875 C 9.738281 -0.921875 10.300781 -1.023438 10.875 -1.234375 C 11.457031 -1.453125 12.003906 -1.800781 12.515625 -2.28125 C 13.023438 -2.769531 13.460938 -3.414062 13.828125 -4.21875 L 14.4375 -4 C 14.21875 -3.3125 13.863281 -2.617188 13.375 -1.921875 C 12.882812 -1.234375 12.242188 -0.664062 11.453125 -0.21875 C 10.660156 0.226562 9.691406 0.453125 8.546875 0.453125 C 7.222656 0.453125 6.023438 0.113281 4.953125 -0.5625 C 3.890625 -1.25 3.039062 -2.226562 2.40625 -3.5 C 1.78125 -4.769531 1.46875 -6.28125 1.46875 -8.03125 C 1.46875 -9.78125 1.78125 -11.320312 2.40625 -12.65625 C 3.039062 -13.988281 3.921875 -15.03125 5.046875 -15.78125 C 6.179688 -16.539062 7.472656 -16.921875 8.921875 -16.921875 Z M 8.921875 -16.921875"/></g></g></g><g fill-opacity="1" fill="#ffffff"><g transform="translate(68.490111, 200.624987)"><g><path d="M 5.953125 -25.09375 L 5.953125 -2.96875 C 5.953125 -2.070312 6.109375 -1.460938 6.421875 -1.140625 C 6.742188 -0.828125 7.289062 -0.671875 8.0625 -0.671875 L 8.0625 0 C 7.71875 -0.0195312 7.207031 -0.046875 6.53125 -0.078125 C 5.863281 -0.109375 5.191406 -0.125 4.515625 -0.125 C 3.785156 -0.125 3.046875 -0.109375 2.296875 -0.078125 C 1.554688 -0.046875 1.003906 -0.0195312 0.640625 0 L 0.640625 -0.671875 C 1.515625 -0.671875 2.140625 -0.828125 2.515625 -1.140625 C 2.890625 -1.460938 3.078125 -2.070312 3.078125 -2.96875 L 3.078125 -21.25 C 3.078125 -22.207031 2.90625 -22.914062 2.5625 -23.375 C 2.21875 -23.832031 1.578125 -24.0625 0.640625 -24.0625 L 0.640625 -24.734375 C 1.316406 -24.671875 1.976562 -24.640625 2.625 -24.640625 C 3.238281 -24.640625 3.828125 -24.675781 4.390625 -24.75 C 4.960938 -24.820312 5.484375 -24.9375 5.953125 -25.09375 Z M 16.125 -16.484375 L 16.125 -15.84375 C 15.59375 -15.800781 15.09375 -15.65625 14.625 -15.40625 C 14.15625 -15.164062 13.695312 -14.8125 13.25 -14.34375 L 8.734375 -9.59375 L 9.1875 -10.5 L 15.140625 -2.34375 C 15.503906 -1.84375 15.847656 -1.453125 16.171875 -1.171875 C 16.503906 -0.898438 16.90625 -0.734375 17.375 -0.671875 L 17.375 0 C 17.144531 -0.0195312 16.773438 -0.046875 16.265625 -0.078125 C 15.765625 -0.109375 15.269531 -0.125 14.78125 -0.125 C 14.125 -0.125 13.453125 -0.109375 12.765625 -0.078125 C 12.085938 -0.046875 11.578125 -0.0195312 11.234375 0 L 11.234375 -0.671875 C 11.660156 -0.671875 11.957031 -0.773438 12.125 -0.984375 C 12.300781 -1.203125 12.269531 -1.460938 12.03125 -1.765625 L 8.359375 -7.140625 C 7.953125 -7.710938 7.582031 -8.082031 7.25 -8.25 C 6.914062 -8.425781 6.441406 -8.523438 5.828125 -8.546875 L 5.828125 -9.1875 C 6.503906 -9.269531 7.054688 -9.410156 7.484375 -9.609375 C 7.910156 -9.816406 8.316406 -10.125 8.703125 -10.53125 L 11.078125 -12.984375 C 11.753906 -13.691406 12.09375 -14.253906 12.09375 -14.671875 C 12.09375 -15.085938 11.875 -15.382812 11.4375 -15.5625 C 11 -15.75 10.429688 -15.84375 9.734375 -15.84375 L 9.734375 -16.484375 C 10.285156 -16.460938 10.90625 -16.4375 11.59375 -16.40625 C 12.289062 -16.375 12.875 -16.359375 13.34375 -16.359375 C 13.707031 -16.359375 14.054688 -16.363281 14.390625 -16.375 C 14.734375 -16.382812 15.054688 -16.398438 15.359375 -16.421875 C 15.660156 -16.441406 15.914062 -16.460938 16.125 -16.484375 Z M 16.125 -16.484375"/></g></g></g><g fill-opacity="1" fill="#ffffff"><g transform="translate(86.08579, 200.624987)"><g/></g></g><g fill-opacity="1" fill="#ffffff"><g transform="translate(94.051828, 200.624987)"><g><path d="M 5.46875 0.21875 C 4.59375 0.21875 3.832031 0.0546875 3.1875 -0.265625 C 2.550781 -0.597656 2.066406 -1.0625 1.734375 -1.65625 C 1.410156 -2.257812 1.25 -2.957031 1.25 -3.75 C 1.25 -4.6875 1.46875 -5.453125 1.90625 -6.046875 C 2.34375 -6.640625 2.898438 -7.117188 3.578125 -7.484375 C 4.265625 -7.847656 4.984375 -8.148438 5.734375 -8.390625 C 6.492188 -8.640625 7.210938 -8.875 7.890625 -9.09375 C 8.578125 -9.320312 9.140625 -9.585938 9.578125 -9.890625 C 10.015625 -10.191406 10.234375 -10.585938 10.234375 -11.078125 L 10.234375 -13.0625 C 10.234375 -13.957031 10.097656 -14.640625 9.828125 -15.109375 C 9.566406 -15.578125 9.210938 -15.890625 8.765625 -16.046875 C 8.316406 -16.203125 7.816406 -16.28125 7.265625 -16.28125 C 6.734375 -16.28125 6.160156 -16.207031 5.546875 -16.0625 C 4.941406 -15.914062 4.457031 -15.609375 4.09375 -15.140625 C 4.5 -15.054688 4.847656 -14.84375 5.140625 -14.5 C 5.441406 -14.15625 5.59375 -13.71875 5.59375 -13.1875 C 5.59375 -12.65625 5.421875 -12.234375 5.078125 -11.921875 C 4.742188 -11.609375 4.3125 -11.453125 3.78125 -11.453125 C 3.15625 -11.453125 2.695312 -11.648438 2.40625 -12.046875 C 2.125 -12.441406 1.984375 -12.882812 1.984375 -13.375 C 1.984375 -13.925781 2.117188 -14.375 2.390625 -14.71875 C 2.671875 -15.0625 3.023438 -15.382812 3.453125 -15.6875 C 3.941406 -16.019531 4.578125 -16.304688 5.359375 -16.546875 C 6.140625 -16.796875 7.019531 -16.921875 8 -16.921875 C 8.875 -16.921875 9.617188 -16.816406 10.234375 -16.609375 C 10.859375 -16.410156 11.375 -16.125 11.78125 -15.75 C 12.332031 -15.226562 12.691406 -14.597656 12.859375 -13.859375 C 13.035156 -13.128906 13.125 -12.253906 13.125 -11.234375 L 13.125 -2.34375 C 13.125 -1.800781 13.203125 -1.410156 13.359375 -1.171875 C 13.515625 -0.941406 13.765625 -0.828125 14.109375 -0.828125 C 14.347656 -0.828125 14.570312 -0.878906 14.78125 -0.984375 C 15 -1.097656 15.253906 -1.269531 15.546875 -1.5 L 15.90625 -0.953125 C 15.457031 -0.617188 15.03125 -0.335938 14.625 -0.109375 C 14.21875 0.109375 13.671875 0.21875 12.984375 0.21875 C 12.367188 0.21875 11.859375 0.113281 11.453125 -0.09375 C 11.046875 -0.3125 10.738281 -0.625 10.53125 -1.03125 C 10.332031 -1.445312 10.234375 -1.976562 10.234375 -2.625 C 9.660156 -1.664062 8.972656 -0.953125 8.171875 -0.484375 C 7.367188 -0.015625 6.46875 0.21875 5.46875 0.21875 Z M 6.625 -1.0625 C 7.332031 -1.0625 7.988281 -1.257812 8.59375 -1.65625 C 9.195312 -2.0625 9.742188 -2.671875 10.234375 -3.484375 L 10.234375 -9.765625 C 9.984375 -9.398438 9.613281 -9.09375 9.125 -8.84375 C 8.632812 -8.601562 8.097656 -8.359375 7.515625 -8.109375 C 6.941406 -7.867188 6.394531 -7.582031 5.875 -7.25 C 5.351562 -6.914062 4.921875 -6.484375 4.578125 -5.953125 C 4.234375 -5.421875 4.0625 -4.726562 4.0625 -3.875 C 4.0625 -3.019531 4.289062 -2.335938 4.75 -1.828125 C 5.207031 -1.316406 5.832031 -1.0625 6.625 -1.0625 Z M 6.625 -1.0625"/></g></g></g><g fill-opacity="1" fill="#ffffff"><g transform="translate(109.983914, 200.624987)"><g><path d="M 11.6875 -16.921875 C 12.488281 -16.921875 13.160156 -16.8125 13.703125 -16.59375 C 14.253906 -16.382812 14.710938 -16.09375 15.078125 -15.71875 C 15.484375 -15.289062 15.769531 -14.753906 15.9375 -14.109375 C 16.101562 -13.472656 16.1875 -12.609375 16.1875 -11.515625 L 16.1875 -2.96875 C 16.1875 -2.070312 16.375 -1.460938 16.75 -1.140625 C 17.125 -0.828125 17.75 -0.671875 18.625 -0.671875 L 18.625 0 C 18.257812 -0.0195312 17.703125 -0.046875 16.953125 -0.078125 C 16.210938 -0.109375 15.488281 -0.125 14.78125 -0.125 C 14.082031 -0.125 13.394531 -0.109375 12.71875 -0.078125 C 12.050781 -0.046875 11.546875 -0.0195312 11.203125 0 L 11.203125 -0.671875 C 11.972656 -0.671875 12.515625 -0.828125 12.828125 -1.140625 C 13.148438 -1.460938 13.3125 -2.070312 13.3125 -2.96875 L 13.3125 -12.21875 C 13.3125 -12.882812 13.253906 -13.492188 13.140625 -14.046875 C 13.035156 -14.597656 12.796875 -15.046875 12.421875 -15.390625 C 12.054688 -15.734375 11.488281 -15.90625 10.71875 -15.90625 C 9.820312 -15.90625 9.035156 -15.648438 8.359375 -15.140625 C 7.691406 -14.628906 7.171875 -13.929688 6.796875 -13.046875 C 6.421875 -12.160156 6.234375 -11.171875 6.234375 -10.078125 L 6.234375 -2.96875 C 6.234375 -2.070312 6.394531 -1.460938 6.71875 -1.140625 C 7.039062 -0.828125 7.585938 -0.671875 8.359375 -0.671875 L 8.359375 0 C 8.015625 -0.0195312 7.503906 -0.046875 6.828125 -0.078125 C 6.160156 -0.109375 5.472656 -0.125 4.765625 -0.125 C 4.066406 -0.125 3.34375 -0.109375 2.59375 -0.078125 C 1.84375 -0.046875 1.285156 -0.0195312 0.921875 0 L 0.921875 -0.671875 C 1.796875 -0.671875 2.421875 -0.828125 2.796875 -1.140625 C 3.171875 -1.460938 3.359375 -2.070312 3.359375 -2.96875 L 3.359375 -12.984375 C 3.359375 -13.953125 3.1875 -14.664062 2.84375 -15.125 C 2.507812 -15.582031 1.867188 -15.8125 0.921875 -15.8125 L 0.921875 -16.484375 C 1.609375 -16.421875 2.269531 -16.390625 2.90625 -16.390625 C 3.53125 -16.390625 4.125 -16.425781 4.6875 -16.5 C 5.25 -16.570312 5.765625 -16.679688 6.234375 -16.828125 L 6.234375 -13.0625 C 6.796875 -14.507812 7.570312 -15.515625 8.5625 -16.078125 C 9.550781 -16.640625 10.59375 -16.921875 11.6875 -16.921875 Z M 11.6875 -16.921875"/></g></g></g><g fill-opacity="1" fill="#ffffff"><g transform="translate(129.083221, 200.624987)"><g><path d="M 15.484375 -25.09375 L 15.484375 -3.484375 C 15.484375 -2.523438 15.660156 -1.816406 16.015625 -1.359375 C 16.367188 -0.898438 17.003906 -0.671875 17.921875 -0.671875 L 17.921875 0 C 17.253906 -0.0625 16.59375 -0.09375 15.9375 -0.09375 C 15.320312 -0.09375 14.726562 -0.0625 14.15625 0 C 13.59375 0.0625 13.078125 0.179688 12.609375 0.359375 L 12.609375 -21.25 C 12.609375 -22.207031 12.4375 -22.914062 12.09375 -23.375 C 11.75 -23.832031 11.109375 -24.0625 10.171875 -24.0625 L 10.171875 -24.734375 C 10.859375 -24.671875 11.519531 -24.640625 12.15625 -24.640625 C 12.78125 -24.640625 13.375 -24.675781 13.9375 -24.75 C 14.5 -24.820312 15.015625 -24.9375 15.484375 -25.09375 Z M 8.765625 -16.921875 C 9.703125 -16.921875 10.582031 -16.695312 11.40625 -16.25 C 12.226562 -15.800781 12.78125 -15.035156 13.0625 -13.953125 L 12.640625 -13.625 C 12.335938 -14.519531 11.867188 -15.171875 11.234375 -15.578125 C 10.609375 -15.984375 9.875 -16.1875 9.03125 -16.1875 C 7.769531 -16.1875 6.71875 -15.535156 5.875 -14.234375 C 5.03125 -12.929688 4.617188 -10.925781 4.640625 -8.21875 C 4.640625 -6.488281 4.800781 -5.050781 5.125 -3.90625 C 5.457031 -2.769531 5.945312 -1.921875 6.59375 -1.359375 C 7.25 -0.796875 8.046875 -0.515625 8.984375 -0.515625 C 9.890625 -0.515625 10.703125 -0.894531 11.421875 -1.65625 C 12.148438 -2.425781 12.585938 -3.5625 12.734375 -5.0625 L 13.125 -4.609375 C 12.945312 -2.984375 12.425781 -1.734375 11.5625 -0.859375 C 10.695312 0.015625 9.53125 0.453125 8.0625 0.453125 C 6.738281 0.453125 5.582031 0.132812 4.59375 -0.5 C 3.601562 -1.144531 2.84375 -2.109375 2.3125 -3.390625 C 1.789062 -4.671875 1.53125 -6.28125 1.53125 -8.21875 C 1.53125 -10.164062 1.863281 -11.785156 2.53125 -13.078125 C 3.207031 -14.367188 4.09375 -15.332031 5.1875 -15.96875 C 6.289062 -16.601562 7.484375 -16.921875 8.765625 -16.921875 Z M 8.765625 -16.921875"/></g></g></g><g fill-opacity="1" fill="#ffffff"><g transform="translate(147.670656, 200.624987)"><g/></g></g><g fill-opacity="1" fill="#ffffff"><g transform="translate(155.636693, 200.624987)"><g><path d="M 5.953125 -25.0625 L 5.953125 -13.09375 C 6.503906 -14.539062 7.273438 -15.539062 8.265625 -16.09375 C 9.265625 -16.644531 10.304688 -16.921875 11.390625 -16.921875 C 12.203125 -16.921875 12.878906 -16.8125 13.421875 -16.59375 C 13.960938 -16.382812 14.414062 -16.09375 14.78125 -15.71875 C 15.1875 -15.289062 15.472656 -14.753906 15.640625 -14.109375 C 15.816406 -13.472656 15.90625 -12.609375 15.90625 -11.515625 L 15.90625 -2.96875 C 15.90625 -2.070312 16.09375 -1.460938 16.46875 -1.140625 C 16.84375 -0.828125 17.46875 -0.671875 18.34375 -0.671875 L 18.34375 0 C 17.976562 -0.0195312 17.421875 -0.046875 16.671875 -0.078125 C 15.921875 -0.109375 15.195312 -0.125 14.5 -0.125 C 13.789062 -0.125 13.097656 -0.109375 12.421875 -0.078125 C 11.753906 -0.046875 11.25 -0.0195312 10.90625 0 L 10.90625 -0.671875 C 11.675781 -0.671875 12.222656 -0.828125 12.546875 -1.140625 C 12.867188 -1.460938 13.03125 -2.070312 13.03125 -2.96875 L 13.03125 -12.21875 C 13.03125 -12.882812 12.972656 -13.492188 12.859375 -14.046875 C 12.753906 -14.597656 12.515625 -15.046875 12.140625 -15.390625 C 11.765625 -15.734375 11.195312 -15.90625 10.4375 -15.90625 C 9.5625 -15.90625 8.785156 -15.660156 8.109375 -15.171875 C 7.441406 -14.679688 6.914062 -14 6.53125 -13.125 C 6.144531 -12.25 5.953125 -11.242188 5.953125 -10.109375 L 5.953125 -2.96875 C 5.953125 -2.070312 6.109375 -1.460938 6.421875 -1.140625 C 6.742188 -0.828125 7.289062 -0.671875 8.0625 -0.671875 L 8.0625 0 C 7.71875 -0.0195312 7.207031 -0.046875 6.53125 -0.078125 C 5.863281 -0.109375 5.179688 -0.125 4.484375 -0.125 C 3.773438 -0.125 3.046875 -0.109375 2.296875 -0.078125 C 1.554688 -0.046875 1.003906 -0.0195312 0.640625 0 L 0.640625 -0.671875 C 1.515625 -0.671875 2.140625 -0.828125 2.515625 -1.140625 C 2.890625 -1.460938 3.078125 -2.070312 3.078125 -2.96875 L 3.078125 -21.21875 C 3.078125 -22.175781 2.90625 -22.882812 2.5625 -23.34375 C 2.21875 -23.800781 1.578125 -24.03125 0.640625 -24.03125 L 0.640625 -24.703125 C 1.316406 -24.640625 1.976562 -24.609375 2.625 -24.609375 C 3.238281 -24.609375 3.828125 -24.644531 4.390625 -24.71875 C 4.960938 -24.789062 5.484375 -24.90625 5.953125 -25.0625 Z M 5.953125 -25.0625"/></g></g></g><g fill-opacity="1" fill="#ffffff"><g transform="translate(174.448067, 200.624987)"><g><path d="M 8.703125 -16.921875 C 10.578125 -16.921875 12.039062 -16.347656 13.09375 -15.203125 C 14.15625 -14.066406 14.6875 -12.296875 14.6875 -9.890625 L 3.390625 -9.890625 L 3.359375 -10.5 L 11.609375 -10.5 C 11.660156 -11.539062 11.578125 -12.503906 11.359375 -13.390625 C 11.148438 -14.273438 10.8125 -14.984375 10.34375 -15.515625 C 9.882812 -16.046875 9.296875 -16.3125 8.578125 -16.3125 C 7.597656 -16.3125 6.726562 -15.820312 5.96875 -14.84375 C 5.207031 -13.863281 4.753906 -12.304688 4.609375 -10.171875 L 4.703125 -10.046875 C 4.660156 -9.722656 4.628906 -9.367188 4.609375 -8.984375 C 4.585938 -8.609375 4.578125 -8.226562 4.578125 -7.84375 C 4.578125 -6.382812 4.8125 -5.132812 5.28125 -4.09375 C 5.75 -3.050781 6.359375 -2.253906 7.109375 -1.703125 C 7.867188 -1.160156 8.65625 -0.890625 9.46875 -0.890625 C 10.113281 -0.890625 10.722656 -0.988281 11.296875 -1.1875 C 11.867188 -1.394531 12.398438 -1.734375 12.890625 -2.203125 C 13.378906 -2.671875 13.804688 -3.300781 14.171875 -4.09375 L 14.8125 -3.84375 C 14.582031 -3.132812 14.195312 -2.445312 13.65625 -1.78125 C 13.125 -1.125 12.453125 -0.585938 11.640625 -0.171875 C 10.835938 0.242188 9.898438 0.453125 8.828125 0.453125 C 7.296875 0.453125 5.976562 0.101562 4.875 -0.59375 C 3.78125 -1.300781 2.9375 -2.28125 2.34375 -3.53125 C 1.757812 -4.78125 1.46875 -6.21875 1.46875 -7.84375 C 1.46875 -9.71875 1.765625 -11.332031 2.359375 -12.6875 C 2.960938 -14.039062 3.804688 -15.082031 4.890625 -15.8125 C 5.984375 -16.550781 7.253906 -16.921875 8.703125 -16.921875 Z M 8.703125 -16.921875"/></g></g></g><g fill-opacity="1" fill="#ffffff"><g transform="translate(190.636088, 200.624987)"><g><path d="M 5.46875 0.21875 C 4.59375 0.21875 3.832031 0.0546875 3.1875 -0.265625 C 2.550781 -0.597656 2.066406 -1.0625 1.734375 -1.65625 C 1.410156 -2.257812 1.25 -2.957031 1.25 -3.75 C 1.25 -4.6875 1.46875 -5.453125 1.90625 -6.046875 C 2.34375 -6.640625 2.898438 -7.117188 3.578125 -7.484375 C 4.265625 -7.847656 4.984375 -8.148438 5.734375 -8.390625 C 6.492188 -8.640625 7.210938 -8.875 7.890625 -9.09375 C 8.578125 -9.320312 9.140625 -9.585938 9.578125 -9.890625 C 10.015625 -10.191406 10.234375 -10.585938 10.234375 -11.078125 L 10.234375 -13.0625 C 10.234375 -13.957031 10.097656 -14.640625 9.828125 -15.109375 C 9.566406 -15.578125 9.210938 -15.890625 8.765625 -16.046875 C 8.316406 -16.203125 7.816406 -16.28125 7.265625 -16.28125 C 6.734375 -16.28125 6.160156 -16.207031 5.546875 -16.0625 C 4.941406 -15.914062 4.457031 -15.609375 4.09375 -15.140625 C 4.5 -15.054688 4.847656 -14.84375 5.140625 -14.5 C 5.441406 -14.15625 5.59375 -13.71875 5.59375 -13.1875 C 5.59375 -12.65625 5.421875 -12.234375 5.078125 -11.921875 C 4.742188 -11.609375 4.3125 -11.453125 3.78125 -11.453125 C 3.15625 -11.453125 2.695312 -11.648438 2.40625 -12.046875 C 2.125 -12.441406 1.984375 -12.882812 1.984375 -13.375 C 1.984375 -13.925781 2.117188 -14.375 2.390625 -14.71875 C 2.671875 -15.0625 3.023438 -15.382812 3.453125 -15.6875 C 3.941406 -16.019531 4.578125 -16.304688 5.359375 -16.546875 C 6.140625 -16.796875 7.019531 -16.921875 8 -16.921875 C 8.875 -16.921875 9.617188 -16.816406 10.234375 -16.609375 C 10.859375 -16.410156 11.375 -16.125 11.78125 -15.75 C 12.332031 -15.226562 12.691406 -14.597656 12.859375 -13.859375 C 13.035156 -13.128906 13.125 -12.253906 13.125 -11.234375 L 13.125 -2.34375 C 13.125 -1.800781 13.203125 -1.410156 13.359375 -1.171875 C 13.515625 -0.941406 13.765625 -0.828125 14.109375 -0.828125 C 14.347656 -0.828125 14.570312 -0.878906 14.78125 -0.984375 C 15 -1.097656 15.253906 -1.269531 15.546875 -1.5 L 15.90625 -0.953125 C 15.457031 -0.617188 15.03125 -0.335938 14.625 -0.109375 C 14.21875 0.109375 13.671875 0.21875 12.984375 0.21875 C 12.367188 0.21875 11.859375 0.113281 11.453125 -0.09375 C 11.046875 -0.3125 10.738281 -0.625 10.53125 -1.03125 C 10.332031 -1.445312 10.234375 -1.976562 10.234375 -2.625 C 9.660156 -1.664062 8.972656 -0.953125 8.171875 -0.484375 C 7.367188 -0.015625 6.46875 0.21875 5.46875 0.21875 Z M 6.625 -1.0625 C 7.332031 -1.0625 7.988281 -1.257812 8.59375 -1.65625 C 9.195312 -2.0625 9.742188 -2.671875 10.234375 -3.484375 L 10.234375 -9.765625 C 9.984375 -9.398438 9.613281 -9.09375 9.125 -8.84375 C 8.632812 -8.601562 8.097656 -8.359375 7.515625 -8.109375 C 6.941406 -7.867188 6.394531 -7.582031 5.875 -7.25 C 5.351562 -6.914062 4.921875 -6.484375 4.578125 -5.953125 C 4.234375 -5.421875 4.0625 -4.726562 4.0625 -3.875 C 4.0625 -3.019531 4.289062 -2.335938 4.75 -1.828125 C 5.207031 -1.316406 5.832031 -1.0625 6.625 -1.0625 Z M 6.625 -1.0625"/></g></g></g><g fill-opacity="1" fill="#ffffff"><g transform="translate(206.568174, 200.624987)"><g><path d="M 6.015625 -25.09375 L 6.015625 -2.96875 C 6.015625 -2.070312 6.203125 -1.460938 6.578125 -1.140625 C 6.953125 -0.828125 7.578125 -0.671875 8.453125 -0.671875 L 8.453125 0 C 8.085938 -0.0195312 7.535156 -0.046875 6.796875 -0.078125 C 6.066406 -0.109375 5.328125 -0.125 4.578125 -0.125 C 3.847656 -0.125 3.109375 -0.109375 2.359375 -0.078125 C 1.617188 -0.046875 1.066406 -0.0195312 0.703125 0 L 0.703125 -0.671875 C 1.578125 -0.671875 2.203125 -0.828125 2.578125 -1.140625 C 2.953125 -1.460938 3.140625 -2.070312 3.140625 -2.96875 L 3.140625 -21.25 C 3.140625 -22.207031 2.96875 -22.914062 2.625 -23.375 C 2.28125 -23.832031 1.640625 -24.0625 0.703125 -24.0625 L 0.703125 -24.734375 C 1.390625 -24.671875 2.050781 -24.640625 2.6875 -24.640625 C 3.300781 -24.640625 3.890625 -24.675781 4.453125 -24.75 C 5.023438 -24.820312 5.546875 -24.9375 6.015625 -25.09375 Z M 6.015625 -25.09375"/></g></g></g><g fill-opacity="1" fill="#ffffff"><g transform="translate(215.717931, 200.624987)"><g><path d="M 8.703125 -16.921875 C 10.578125 -16.921875 12.039062 -16.347656 13.09375 -15.203125 C 14.15625 -14.066406 14.6875 -12.296875 14.6875 -9.890625 L 3.390625 -9.890625 L 3.359375 -10.5 L 11.609375 -10.5 C 11.660156 -11.539062 11.578125 -12.503906 11.359375 -13.390625 C 11.148438 -14.273438 10.8125 -14.984375 10.34375 -15.515625 C 9.882812 -16.046875 9.296875 -16.3125 8.578125 -16.3125 C 7.597656 -16.3125 6.726562 -15.820312 5.96875 -14.84375 C 5.207031 -13.863281 4.753906 -12.304688 4.609375 -10.171875 L 4.703125 -10.046875 C 4.660156 -9.722656 4.628906 -9.367188 4.609375 -8.984375 C 4.585938 -8.609375 4.578125 -8.226562 4.578125 -7.84375 C 4.578125 -6.382812 4.8125 -5.132812 5.28125 -4.09375 C 5.75 -3.050781 6.359375 -2.253906 7.109375 -1.703125 C 7.867188 -1.160156 8.65625 -0.890625 9.46875 -0.890625 C 10.113281 -0.890625 10.722656 -0.988281 11.296875 -1.1875 C 11.867188 -1.394531 12.398438 -1.734375 12.890625 -2.203125 C 13.378906 -2.671875 13.804688 -3.300781 14.171875 -4.09375 L 14.8125 -3.84375 C 14.582031 -3.132812 14.195312 -2.445312 13.65625 -1.78125 C 13.125 -1.125 12.453125 -0.585938 11.640625 -0.171875 C 10.835938 0.242188 9.898438 0.453125 8.828125 0.453125 C 7.296875 0.453125 5.976562 0.101562 4.875 -0.59375 C 3.78125 -1.300781 2.9375 -2.28125 2.34375 -3.53125 C 1.757812 -4.78125 1.46875 -6.21875 1.46875 -7.84375 C 1.46875 -9.71875 1.765625 -11.332031 2.359375 -12.6875 C 2.960938 -14.039062 3.804688 -15.082031 4.890625 -15.8125 C 5.984375 -16.550781 7.253906 -16.921875 8.703125 -16.921875 Z M 8.703125 -16.921875"/></g></g></g><g clip-path="url(#2676970563)"><g clip-path="url(#298b2e2024)"><path stroke-miterlimit="4" stroke-opacity="1" stroke-width="8" stroke="#9cae47" d="M 44.271321 -0.00108024 L 88.542157 90.233301 L 0.000484576 90.233301 Z M 44.271321 -0.00108024" stroke-linejoin="miter" fill="none" transform="matrix(0.75, 0, 0, 0.75, 239.577762, 168.575029)" stroke-linecap="butt"/></g></g><g fill-opacity="1" fill="#ffffff"><g transform="translate(112.516909, 219.924946)"><g><path d="M 0.625 -5.40625 C 0.625 -6.050781 0.738281 -6.6875 0.96875 -7.3125 C 1.195312 -7.9375 1.523438 -8.503906 1.953125 -9.015625 C 2.378906 -9.535156 2.90625 -9.945312 3.53125 -10.25 C 4.164062 -10.550781 4.882812 -10.703125 5.6875 -10.703125 C 6.632812 -10.703125 7.445312 -10.484375 8.125 -10.046875 C 8.800781 -9.617188 9.296875 -9.066406 9.609375 -8.390625 L 8.796875 -7.875 C 8.554688 -8.34375 8.257812 -8.710938 7.90625 -8.984375 C 7.5625 -9.265625 7.191406 -9.460938 6.796875 -9.578125 C 6.398438 -9.703125 6.007812 -9.765625 5.625 -9.765625 C 4.988281 -9.765625 4.421875 -9.632812 3.921875 -9.375 C 3.429688 -9.125 3.019531 -8.785156 2.6875 -8.359375 C 2.351562 -7.929688 2.101562 -7.457031 1.9375 -6.9375 C 1.769531 -6.414062 1.6875 -5.882812 1.6875 -5.34375 C 1.6875 -4.75 1.785156 -4.179688 1.984375 -3.640625 C 2.179688 -3.097656 2.457031 -2.617188 2.8125 -2.203125 C 3.175781 -1.796875 3.597656 -1.46875 4.078125 -1.21875 C 4.566406 -0.976562 5.097656 -0.859375 5.671875 -0.859375 C 6.066406 -0.859375 6.472656 -0.925781 6.890625 -1.0625 C 7.316406 -1.207031 7.710938 -1.421875 8.078125 -1.703125 C 8.441406 -1.992188 8.734375 -2.367188 8.953125 -2.828125 L 9.828125 -2.390625 C 9.609375 -1.859375 9.265625 -1.40625 8.796875 -1.03125 C 8.335938 -0.664062 7.828125 -0.382812 7.265625 -0.1875 C 6.703125 0 6.148438 0.09375 5.609375 0.09375 C 4.878906 0.09375 4.207031 -0.0625 3.59375 -0.375 C 2.988281 -0.695312 2.460938 -1.117188 2.015625 -1.640625 C 1.566406 -2.171875 1.222656 -2.757812 0.984375 -3.40625 C 0.742188 -4.0625 0.625 -4.726562 0.625 -5.40625 Z M 0.625 -5.40625"/></g></g></g><g fill-opacity="1" fill="#ffffff"><g transform="translate(122.798921, 219.924946)"><g><path d="M 5.625 0.078125 C 4.875 0.078125 4.191406 -0.0703125 3.578125 -0.375 C 2.972656 -0.675781 2.445312 -1.082031 2 -1.59375 C 1.5625 -2.113281 1.222656 -2.695312 0.984375 -3.34375 C 0.742188 -3.988281 0.625 -4.648438 0.625 -5.328125 C 0.625 -6.035156 0.75 -6.710938 1 -7.359375 C 1.25 -8.003906 1.601562 -8.578125 2.0625 -9.078125 C 2.519531 -9.585938 3.050781 -9.988281 3.65625 -10.28125 C 4.269531 -10.570312 4.929688 -10.71875 5.640625 -10.71875 C 6.390625 -10.71875 7.066406 -10.5625 7.671875 -10.25 C 8.285156 -9.945312 8.8125 -9.535156 9.25 -9.015625 C 9.6875 -8.492188 10.023438 -7.910156 10.265625 -7.265625 C 10.503906 -6.628906 10.625 -5.976562 10.625 -5.3125 C 10.625 -4.601562 10.5 -3.925781 10.25 -3.28125 C 10 -2.632812 9.644531 -2.054688 9.1875 -1.546875 C 8.738281 -1.046875 8.207031 -0.648438 7.59375 -0.359375 C 6.988281 -0.0664062 6.332031 0.078125 5.625 0.078125 Z M 1.6875 -5.328125 C 1.6875 -4.742188 1.78125 -4.179688 1.96875 -3.640625 C 2.15625 -3.109375 2.421875 -2.632812 2.765625 -2.21875 C 3.117188 -1.8125 3.535156 -1.484375 4.015625 -1.234375 C 4.503906 -0.992188 5.039062 -0.875 5.625 -0.875 C 6.238281 -0.875 6.785156 -1 7.265625 -1.25 C 7.753906 -1.507812 8.171875 -1.847656 8.515625 -2.265625 C 8.859375 -2.691406 9.117188 -3.171875 9.296875 -3.703125 C 9.472656 -4.234375 9.5625 -4.773438 9.5625 -5.328125 C 9.5625 -5.898438 9.46875 -6.453125 9.28125 -6.984375 C 9.09375 -7.515625 8.820312 -7.988281 8.46875 -8.40625 C 8.113281 -8.832031 7.695312 -9.164062 7.21875 -9.40625 C 6.738281 -9.644531 6.207031 -9.765625 5.625 -9.765625 C 5.019531 -9.765625 4.472656 -9.640625 3.984375 -9.390625 C 3.503906 -9.140625 3.09375 -8.800781 2.75 -8.375 C 2.40625 -7.945312 2.140625 -7.46875 1.953125 -6.9375 C 1.773438 -6.414062 1.6875 -5.878906 1.6875 -5.328125 Z M 1.6875 -5.328125"/></g></g></g><g fill-opacity="1" fill="#ffffff"><g transform="translate(134.05518, 219.924946)"><g><path d="M 2.390625 -8.71875 L 2.390625 0 L 1.328125 0 L 1.328125 -10.65625 L 2.203125 -10.65625 L 9.1875 -1.765625 L 9.1875 -10.640625 L 10.25 -10.640625 L 10.25 0 L 9.265625 0 Z M 2.390625 -8.71875"/></g></g></g><g fill-opacity="1" fill="#ffffff"><g transform="translate(145.626198, 219.924946)"><g><path d="M 7.5625 -8.65625 C 7.40625 -8.820312 7.226562 -8.972656 7.03125 -9.109375 C 6.832031 -9.242188 6.609375 -9.359375 6.359375 -9.453125 C 6.109375 -9.554688 5.835938 -9.640625 5.546875 -9.703125 C 5.265625 -9.765625 4.96875 -9.796875 4.65625 -9.796875 C 3.71875 -9.796875 3.03125 -9.617188 2.59375 -9.265625 C 2.164062 -8.910156 1.953125 -8.425781 1.953125 -7.8125 C 1.953125 -7.394531 2.050781 -7.066406 2.25 -6.828125 C 2.457031 -6.585938 2.78125 -6.390625 3.21875 -6.234375 C 3.664062 -6.085938 4.226562 -5.9375 4.90625 -5.78125 C 5.664062 -5.613281 6.316406 -5.421875 6.859375 -5.203125 C 7.410156 -4.984375 7.835938 -4.6875 8.140625 -4.3125 C 8.441406 -3.9375 8.59375 -3.429688 8.59375 -2.796875 C 8.59375 -2.304688 8.5 -1.878906 8.3125 -1.515625 C 8.125 -1.148438 7.859375 -0.847656 7.515625 -0.609375 C 7.171875 -0.367188 6.765625 -0.191406 6.296875 -0.078125 C 5.828125 0.0351562 5.3125 0.09375 4.75 0.09375 C 4.207031 0.09375 3.679688 0.0351562 3.171875 -0.078125 C 2.671875 -0.191406 2.191406 -0.363281 1.734375 -0.59375 C 1.285156 -0.820312 0.867188 -1.109375 0.484375 -1.453125 L 1 -2.3125 C 1.195312 -2.113281 1.425781 -1.925781 1.6875 -1.75 C 1.945312 -1.570312 2.238281 -1.410156 2.5625 -1.265625 C 2.894531 -1.128906 3.25 -1.023438 3.625 -0.953125 C 4 -0.878906 4.382812 -0.84375 4.78125 -0.84375 C 5.632812 -0.84375 6.296875 -0.992188 6.765625 -1.296875 C 7.242188 -1.609375 7.484375 -2.070312 7.484375 -2.6875 C 7.484375 -3.125 7.363281 -3.472656 7.125 -3.734375 C 6.882812 -4.003906 6.523438 -4.222656 6.046875 -4.390625 C 5.566406 -4.566406 4.976562 -4.734375 4.28125 -4.890625 C 3.539062 -5.054688 2.914062 -5.242188 2.40625 -5.453125 C 1.894531 -5.671875 1.507812 -5.953125 1.25 -6.296875 C 1 -6.640625 0.875 -7.097656 0.875 -7.671875 C 0.875 -8.328125 1.035156 -8.878906 1.359375 -9.328125 C 1.679688 -9.785156 2.128906 -10.128906 2.703125 -10.359375 C 3.273438 -10.597656 3.929688 -10.71875 4.671875 -10.71875 C 5.140625 -10.71875 5.570312 -10.671875 5.96875 -10.578125 C 6.375 -10.484375 6.75 -10.347656 7.09375 -10.171875 C 7.445312 -9.992188 7.769531 -9.769531 8.0625 -9.5 Z M 7.5625 -8.65625"/></g></g></g><g fill-opacity="1" fill="#ffffff"><g transform="translate(154.724136, 219.924946)"><g><path d="M 8.890625 -9.71875 L 5.09375 -9.71875 L 5.09375 0 L 4.046875 0 L 4.046875 -9.71875 L 0.25 -9.71875 L 0.25 -10.65625 L 8.890625 -10.65625 Z M 8.890625 -9.71875"/></g></g></g><g fill-opacity="1" fill="#ffffff"><g transform="translate(163.867038, 219.924946)"><g><path d="M 1.328125 0 L 1.328125 -10.65625 L 5.828125 -10.65625 C 6.296875 -10.65625 6.71875 -10.554688 7.09375 -10.359375 C 7.476562 -10.171875 7.8125 -9.914062 8.09375 -9.59375 C 8.375 -9.269531 8.59375 -8.910156 8.75 -8.515625 C 8.90625 -8.117188 8.984375 -7.71875 8.984375 -7.3125 C 8.984375 -6.800781 8.882812 -6.316406 8.6875 -5.859375 C 8.5 -5.410156 8.222656 -5.03125 7.859375 -4.71875 C 7.503906 -4.414062 7.085938 -4.210938 6.609375 -4.109375 L 9.21875 0 L 8.046875 0 L 5.53125 -3.9375 L 2.390625 -3.9375 L 2.390625 0 Z M 2.390625 -4.859375 L 5.859375 -4.859375 C 6.285156 -4.859375 6.648438 -4.972656 6.953125 -5.203125 C 7.265625 -5.429688 7.503906 -5.734375 7.671875 -6.109375 C 7.847656 -6.484375 7.9375 -6.882812 7.9375 -7.3125 C 7.9375 -7.738281 7.835938 -8.132812 7.640625 -8.5 C 7.441406 -8.863281 7.179688 -9.15625 6.859375 -9.375 C 6.535156 -9.601562 6.175781 -9.71875 5.78125 -9.71875 L 2.390625 -9.71875 Z M 2.390625 -4.859375"/></g></g></g><g fill-opacity="1" fill="#ffffff"><g transform="translate(173.654436, 219.924946)"><g><path d="M 5.671875 0.078125 C 4.828125 0.078125 4.113281 -0.0703125 3.53125 -0.375 C 2.957031 -0.675781 2.5 -1.078125 2.15625 -1.578125 C 1.820312 -2.085938 1.578125 -2.660156 1.421875 -3.296875 C 1.265625 -3.941406 1.1875 -4.601562 1.1875 -5.28125 L 1.1875 -10.65625 L 2.21875 -10.65625 L 2.21875 -5.28125 C 2.21875 -4.726562 2.273438 -4.1875 2.390625 -3.65625 C 2.503906 -3.125 2.691406 -2.648438 2.953125 -2.234375 C 3.210938 -1.816406 3.5625 -1.484375 4 -1.234375 C 4.445312 -0.992188 5 -0.875 5.65625 -0.875 C 6.332031 -0.875 6.894531 -1 7.34375 -1.25 C 7.789062 -1.507812 8.140625 -1.847656 8.390625 -2.265625 C 8.648438 -2.679688 8.832031 -3.148438 8.9375 -3.671875 C 9.050781 -4.203125 9.109375 -4.738281 9.109375 -5.28125 L 9.109375 -10.65625 L 10.15625 -10.65625 L 10.15625 -5.28125 C 10.15625 -4.570312 10.070312 -3.890625 9.90625 -3.234375 C 9.75 -2.585938 9.492188 -2.019531 9.140625 -1.53125 C 8.785156 -1.039062 8.320312 -0.648438 7.75 -0.359375 C 7.1875 -0.0664062 6.492188 0.078125 5.671875 0.078125 Z M 5.671875 0.078125"/></g></g></g><g fill-opacity="1" fill="#ffffff"><g transform="translate(184.970651, 219.924946)"><g><path d="M 0.625 -5.40625 C 0.625 -6.050781 0.738281 -6.6875 0.96875 -7.3125 C 1.195312 -7.9375 1.523438 -8.503906 1.953125 -9.015625 C 2.378906 -9.535156 2.90625 -9.945312 3.53125 -10.25 C 4.164062 -10.550781 4.882812 -10.703125 5.6875 -10.703125 C 6.632812 -10.703125 7.445312 -10.484375 8.125 -10.046875 C 8.800781 -9.617188 9.296875 -9.066406 9.609375 -8.390625 L 8.796875 -7.875 C 8.554688 -8.34375 8.257812 -8.710938 7.90625 -8.984375 C 7.5625 -9.265625 7.191406 -9.460938 6.796875 -9.578125 C 6.398438 -9.703125 6.007812 -9.765625 5.625 -9.765625 C 4.988281 -9.765625 4.421875 -9.632812 3.921875 -9.375 C 3.429688 -9.125 3.019531 -8.785156 2.6875 -8.359375 C 2.351562 -7.929688 2.101562 -7.457031 1.9375 -6.9375 C 1.769531 -6.414062 1.6875 -5.882812 1.6875 -5.34375 C 1.6875 -4.75 1.785156 -4.179688 1.984375 -3.640625 C 2.179688 -3.097656 2.457031 -2.617188 2.8125 -2.203125 C 3.175781 -1.796875 3.597656 -1.46875 4.078125 -1.21875 C 4.566406 -0.976562 5.097656 -0.859375 5.671875 -0.859375 C 6.066406 -0.859375 6.472656 -0.925781 6.890625 -1.0625 C 7.316406 -1.207031 7.710938 -1.421875 8.078125 -1.703125 C 8.441406 -1.992188 8.734375 -2.367188 8.953125 -2.828125 L 9.828125 -2.390625 C 9.609375 -1.859375 9.265625 -1.40625 8.796875 -1.03125 C 8.335938 -0.664062 7.828125 -0.382812 7.265625 -0.1875 C 6.703125 0 6.148438 0.09375 5.609375 0.09375 C 4.878906 0.09375 4.207031 -0.0625 3.59375 -0.375 C 2.988281 -0.695312 2.460938 -1.117188 2.015625 -1.640625 C 1.566406 -2.171875 1.222656 -2.757812 0.984375 -3.40625 C 0.742188 -4.0625 0.625 -4.726562 0.625 -5.40625 Z M 0.625 -5.40625"/></g></g></g><g fill-opacity="1" fill="#ffffff"><g transform="translate(195.252663, 219.924946)"><g><path d="M 8.890625 -9.71875 L 5.09375 -9.71875 L 5.09375 0 L 4.046875 0 L 4.046875 -9.71875 L 0.25 -9.71875 L 0.25 -10.65625 L 8.890625 -10.65625 Z M 8.890625 -9.71875"/></g></g></g><g fill-opacity="1" fill="#ffffff"><g transform="translate(204.395565, 219.924946)"><g><path d="M 1.328125 0 L 1.328125 -10.65625 L 2.390625 -10.65625 L 2.390625 0 Z M 1.328125 0"/></g></g></g><g fill-opacity="1" fill="#ffffff"><g transform="translate(208.112675, 219.924946)"><g><path d="M 5.625 0.078125 C 4.875 0.078125 4.191406 -0.0703125 3.578125 -0.375 C 2.972656 -0.675781 2.445312 -1.082031 2 -1.59375 C 1.5625 -2.113281 1.222656 -2.695312 0.984375 -3.34375 C 0.742188 -3.988281 0.625 -4.648438 0.625 -5.328125 C 0.625 -6.035156 0.75 -6.710938 1 -7.359375 C 1.25 -8.003906 1.601562 -8.578125 2.0625 -9.078125 C 2.519531 -9.585938 3.050781 -9.988281 3.65625 -10.28125 C 4.269531 -10.570312 4.929688 -10.71875 5.640625 -10.71875 C 6.390625 -10.71875 7.066406 -10.5625 7.671875 -10.25 C 8.285156 -9.945312 8.8125 -9.535156 9.25 -9.015625 C 9.6875 -8.492188 10.023438 -7.910156 10.265625 -7.265625 C 10.503906 -6.628906 10.625 -5.976562 10.625 -5.3125 C 10.625 -4.601562 10.5 -3.925781 10.25 -3.28125 C 10 -2.632812 9.644531 -2.054688 9.1875 -1.546875 C 8.738281 -1.046875 8.207031 -0.648438 7.59375 -0.359375 C 6.988281 -0.0664062 6.332031 0.078125 5.625 0.078125 Z M 1.6875 -5.328125 C 1.6875 -4.742188 1.78125 -4.179688 1.96875 -3.640625 C 2.15625 -3.109375 2.421875 -2.632812 2.765625 -2.21875 C 3.117188 -1.8125 3.535156 -1.484375 4.015625 -1.234375 C 4.503906 -0.992188 5.039062 -0.875 5.625 -0.875 C 6.238281 -0.875 6.785156 -1 7.265625 -1.25 C 7.753906 -1.507812 8.171875 -1.847656 8.515625 -2.265625 C 8.859375 -2.691406 9.117188 -3.171875 9.296875 -3.703125 C 9.472656 -4.234375 9.5625 -4.773438 9.5625 -5.328125 C 9.5625 -5.898438 9.46875 -6.453125 9.28125 -6.984375 C 9.09375 -7.515625 8.820312 -7.988281 8.46875 -8.40625 C 8.113281 -8.832031 7.695312 -9.164062 7.21875 -9.40625 C 6.738281 -9.644531 6.207031 -9.765625 5.625 -9.765625 C 5.019531 -9.765625 4.472656 -9.640625 3.984375 -9.390625 C 3.503906 -9.140625 3.09375 -8.800781 2.75 -8.375 C 2.40625 -7.945312 2.140625 -7.46875 1.953125 -6.9375 C 1.773438 -6.414062 1.6875 -5.878906 1.6875 -5.328125 Z M 1.6875 -5.328125"/></g></g></g><g fill-opacity="1" fill="#ffffff"><g transform="translate(219.368934, 219.924946)"><g><path d="M 2.390625 -8.71875 L 2.390625 0 L 1.328125 0 L 1.328125 -10.65625 L 2.203125 -10.65625 L 9.1875 -1.765625 L 9.1875 -10.640625 L 10.25 -10.640625 L 10.25 0 L 9.265625 0 Z M 2.390625 -8.71875"/></g></g></g><g clip-path="url(#9781d95caa)"><g clip-path="url(#b1f2795c54)"><path stroke-miterlimit="4" stroke-opacity="1" stroke-width="8" stroke="#ffffff" d="M 44.271012 -0.00108024 L 88.541848 90.233301 L 0.000175868 90.233301 Z M 44.271012 -0.00108024" stroke-linejoin="miter" fill="none" transform="matrix(0.75, 0, 0, 0.75, 277.171743, 168.575029)" stroke-linecap="butt"/></g></g></svg>