<?xml version="1.0" encoding="UTF-8"?>
<svg version="1.1" xmlns="http://www.w3.org/2000/svg" width="100" height="100">
<path d="M0 0 C22.44 0 44.88 0 68 0 C68 22.44 68 44.88 68 68 C50.84 68 33.68 68 16 68 C19.7176881 71.7176881 21.20744544 72.72131264 25.875 74.4375 C31.57517638 76.70366768 35.75240864 78.83293945 39.375 83.9375 C40 86 40 86 40 92 C18.88 92 -2.24 92 -24 92 C-24 83.6 -24 83.6 -20 79 C-15.10933796 75.27790322 -9.51484897 72.65894504 -4 70 C-3.1650458 64.6562931 -6.03587431 61.1594944 -9 57 C-9.33 56.67 -9.66 56.34 -10 56 C-10.30734597 52.78028604 -10.27847292 49.54507284 -10.3125 46.3125 C-10.34150391 45.41337891 -10.37050781 44.51425781 -10.40039062 43.58789062 C-10.45473547 37.89004298 -9.97668408 34.41025781 -6 30 C-4.35 29.01 -2.7 28.02 -1 27 C-0.67 18.09 -0.34 9.18 0 0 Z M57 9 C55.61767557 10.62626404 54.28062485 12.2925002 53 14 C50.03 13.505 50.03 13.505 47 13 C48.39159663 16.47899158 49.63251488 17.48052501 53 19 C54.00893131 17.90398831 55.00688225 16.79786082 56 15.6875 C56.556875 15.07261719 57.11375 14.45773438 57.6875 13.82421875 C59.29201498 11.96868665 59.29201498 11.96868665 59 9 C58.34 9 57.68 9 57 9 Z M12 14 C12 15.32 12 16.64 12 18 C21.24 18 30.48 18 40 18 C40 16.68 40 15.36 40 14 C30.76 14 21.52 14 12 14 Z M57 27 C55.61767557 28.62626404 54.28062485 30.2925002 53 32 C50.03 31.505 50.03 31.505 47 31 C48.39159663 34.47899158 49.63251488 35.48052501 53 37 C54.00893131 35.90398831 55.00688225 34.79786082 56 33.6875 C56.556875 33.07261719 57.11375 32.45773438 57.6875 31.82421875 C59.29201498 29.96868665 59.29201498 29.96868665 59 27 C58.34 27 57.68 27 57 27 Z M-5 37 C-5.40988049 38.92564862 -5.40988049 38.92564862 -5.29296875 41.01171875 C-5.2784668 42.14770508 -5.2784668 42.14770508 -5.26367188 43.30664062 C-5.2259668 44.48516602 -5.2259668 44.48516602 -5.1875 45.6875 C-5.17396484 46.48478516 -5.16042969 47.28207031 -5.14648438 48.10351562 C-5.11117089 50.06929967 -5.05736447 52.03473582 -5 54 C-4.34 54.33 -3.68 54.66 -3 55 C-1.96708324 56.98320018 -0.9662501 58.98347806 0 61 C0.33 61.33 0.66 61.66 1 62 C1.09886353 63.62252492 1.12971167 65.24947273 1.125 66.875 C1.12886719 68.20144531 1.12886719 68.20144531 1.1328125 69.5546875 C1 72 1 72 0 75 C-2.24609375 76.04296875 -2.24609375 76.04296875 -5 77 C-13.16266031 80.50211206 -13.16266031 80.50211206 -19 87 C-19 87.33 -19 87.66 -19 88 C-1.51 88 15.98 88 34 88 C31.89508583 82.73771458 31.29157716 82.23410475 26.4375 80.0390625 C25.633125 79.69617188 24.82875 79.35328125 24 79 C22.01844044 78.13043264 20.03931485 77.25530036 18.0625 76.375 C17.12535156 75.97023437 16.18820313 75.56546875 15.22265625 75.1484375 C13 74 13 74 12 72 C11.4631463 66.16687806 11.45841213 61.86968333 15 57 C15 56.01 15 55.02 15 54 C15.99 54 16.98 54 18 54 C18.13559675 51.43571485 18.23433188 48.87864784 18.3125 46.3125 C18.3753418 45.2306543 18.3753418 45.2306543 18.43945312 44.12695312 C18.53528525 39.92950614 18.37392005 38.46477335 15.63671875 35.0625 C12.28821652 32.44322714 9.70948868 31.21368609 5.5 30.6875 C1.13296219 31.23337973 -2.22037368 33.66157516 -5 37 Z M28 32 C28 33.32 28 34.64 28 36 C31.96 36 35.92 36 40 36 C40 34.68 40 33.36 40 32 C36.04 32 32.08 32 28 32 Z M57 45 C55.61767557 46.62626404 54.28062485 48.2925002 53 50 C50.03 49.505 50.03 49.505 47 49 C48.39159663 52.47899158 49.63251488 53.48052501 53 55 C54.00893131 53.90398831 55.00688225 52.79786082 56 51.6875 C56.556875 51.07261719 57.11375 50.45773438 57.6875 49.82421875 C59.29201498 47.96868665 59.29201498 47.96868665 59 45 C58.34 45 57.68 45 57 45 Z M28 50 C28 51.32 28 52.64 28 54 C31.96 54 35.92 54 40 54 C40 52.68 40 51.36 40 50 C36.04 50 32.08 50 28 50 Z " fill="#000000" transform="translate(28,4)"/>
</svg>
