<?xml version="1.0" encoding="UTF-8"?>
<svg version="1.1" xmlns="http://www.w3.org/2000/svg" width="100" height="100">
<path d="M0 0 C3.03778332 0.85110309 5.29448292 2.09630692 7.96875 3.76171875 C9.27585937 4.56609375 9.27585937 4.56609375 10.609375 5.38671875 C12.71875 6.76171875 12.71875 6.76171875 13.71875 7.76171875 C13.55342773 9.06326904 13.55342773 9.06326904 13.38476562 10.39111328 C13.87630397 15.35177003 16.55608109 17.35616658 20.0625 20.69140625 C20.7061853 21.32660187 21.34987061 21.96179749 22.01306152 22.61624146 C24.06795303 24.6376029 26.14272778 26.63708799 28.21875 28.63671875 C29.61724904 30.00511818 31.01440171 31.37489506 32.41015625 32.74609375 C35.83094853 36.10080655 39.2697226 39.43605164 42.71875 42.76171875 C43.32589844 42.43042969 43.93304688 42.09914062 44.55859375 41.7578125 C46.71875 40.76171875 46.71875 40.76171875 49.28125 40.82421875 C52.56643006 42.08774954 53.1980612 43.64792739 54.71875 46.76171875 C55.14002419 47.77771652 55.14002419 47.77771652 55.56980896 48.8142395 C56.95338264 51.15942602 57.9237079 51.59837543 60.41430664 52.60888672 C65.00452836 54.7375559 68.09345094 57.60287258 71.58984375 61.20703125 C72.19764175 61.81811737 72.80543976 62.42920349 73.43165588 63.05880737 C74.70255333 64.34005347 75.9687015 65.62602674 77.23022461 66.91650391 C79.16637184 68.89707282 81.11588407 70.86366232 83.06835938 72.828125 C84.30547316 74.07865034 85.54182919 75.32992586 86.77734375 76.58203125 C87.6506559 77.4664238 87.6506559 77.4664238 88.54161072 78.36868286 C93.03785414 82.97285984 94.06248796 85.19446388 94.01171875 91.5 C93.58219199 94.81594655 92.10950646 96.51159502 89.71875 98.76171875 C85.92908304 100.65655223 81.83156534 100.44563153 77.71875 99.76171875 C74.65157277 98.03864121 72.43015259 95.74140885 70.03125 93.19140625 C69.36206543 92.5175589 68.69288086 91.84371155 68.00341797 91.14944458 C66.60022454 89.72684677 65.20907211 88.29228164 63.82958984 86.84667969 C61.72151475 84.63961332 59.57821904 82.47233171 57.42578125 80.30859375 C56.06288898 78.91753146 54.70213547 77.52436981 53.34375 76.12890625 C52.70735596 75.4817868 52.07096191 74.83466736 51.4152832 74.16793823 C47.94842403 70.51262409 46.04404912 67.72885976 44.71875 62.76171875 C42.7932856 60.53811195 42.7932856 60.53811195 39.71875 59.76171875 C36.71875 58.76171875 36.71875 58.76171875 34.71875 56.76171875 C35.09375 54.38671875 35.09375 54.38671875 35.71875 51.76171875 C35.71875 47.14487199 34.6936952 46.23842459 31.60360718 43.03948975 C30.71314194 42.15175873 30.71314194 42.15175873 29.8046875 41.24609375 C29.19742828 40.63026428 28.59016907 40.01443481 27.96450806 39.37994385 C26.67660845 38.08055784 25.38343375 36.78638235 24.08544922 35.49707031 C22.10443545 33.52237015 20.15151976 31.52257336 18.19921875 29.51953125 C16.94433256 28.2600983 15.68787189 27.00223178 14.4296875 25.74609375 C13.84818939 25.14617615 13.26669128 24.54625854 12.66757202 23.92816162 C9.17014334 20.46470544 9.17014334 20.46470544 4.41357422 19.50195312 C3.52428223 19.58767578 2.63499023 19.67339844 1.71875 19.76171875 C-0.109375 17.93359375 -0.109375 17.93359375 -1.53125 15.51171875 C-2.01078125 14.7228125 -2.4903125 13.93390625 -2.984375 13.12109375 C-6.30944549 7.07186913 -6.30944549 7.07186913 -6.09375 4.69921875 C-4.74235249 1.47665545 -3.710665 -0.38758658 0 0 Z M55.71875 61.76171875 C57.25527003 65.4005155 59.44295759 67.74386521 62.21875 70.52734375 C63.105625 71.41679688 63.9925 72.30625 64.90625 73.22265625 C65.834375 74.14304687 66.7625 75.0634375 67.71875 76.01171875 C68.646875 76.94757813 69.575 77.8834375 70.53125 78.84765625 C71.8615625 80.17410156 71.8615625 80.17410156 73.21875 81.52734375 C74.0334375 82.33977539 74.848125 83.15220703 75.6875 83.98925781 C77.52059993 85.98087814 77.52059993 85.98087814 79.71875 85.76171875 C78.18222997 82.122922 75.99454241 79.77957229 73.21875 76.99609375 C72.331875 76.10664062 71.445 75.2171875 70.53125 74.30078125 C69.603125 73.38039063 68.675 72.46 67.71875 71.51171875 C66.790625 70.57585937 65.8625 69.64 64.90625 68.67578125 C64.019375 67.79148437 63.1325 66.9071875 62.21875 65.99609375 C61.4040625 65.18366211 60.589375 64.37123047 59.75 63.53417969 C57.91690007 61.54255936 57.91690007 61.54255936 55.71875 61.76171875 Z " fill="#000000" transform="translate(6.28125,0.23828125)"/>
<path d="M0 0 C0.83984375 1.640625 0.83984375 1.640625 1 4 C-0.75836408 6.1302685 -2.42424794 7.8949842 -4.4375 9.75 C-4.96666016 10.25660156 -5.49582031 10.76320313 -6.04101562 11.28515625 C-7.34977101 12.53495869 -8.67351959 13.76902618 -10 15 C-8.01929563 17.35043586 -6.01418678 19.67822804 -4 22 C-3.29875 22.825 -2.5975 23.65 -1.875 24.5 C-0.15995853 26.21703168 -0.15995853 26.21703168 1.8359375 25.8828125 C5.69766291 24.30745159 8.04121677 20.88563203 10.78125 17.8359375 C11.87953125 16.92714844 11.87953125 16.92714844 13 16 C15.28125 16.2265625 15.28125 16.2265625 17 17 C17.61922604 27.01082094 16.4714697 34.8845844 10.1875 42.9375 C7.14507104 46.15486862 4.33057889 47.82560573 0 49 C-3.84581113 48.9739267 -7.48767289 48.44528123 -11.17578125 47.359375 C-11.77777344 47.24078125 -12.37976563 47.1221875 -13 47 C-13.495 47.495 -13.99 47.99 -14.5 48.5 C-14.995 48.995 -15.49 49.49 -16 50 C-18.1875 49.6875 -18.1875 49.6875 -20 49 C-20.061875 48.0925 -20.12375 47.185 -20.1875 46.25 C-20.76841618 42.90994787 -20.76841618 42.90994787 -23.0625 40.5625 C-27.18647831 38.36889452 -29.48000503 39.08067899 -34 40 C-34.66 38.68 -35.32 37.36 -36 36 C-34.02 33.69 -32.04 31.38 -30 29 C-30.33 28.360625 -30.66 27.72125 -31 27.0625 C-32.77757791 21.61866765 -32.95991164 16.91982328 -30.375 11.75 C-21.65631054 1.65467537 -13.15272804 -0.73183649 0 0 Z " fill="#000000" transform="translate(83,0)"/>
<path d="M0 0 C1.32 0.66 2.64 1.32 4 2 C3.7525 3.216875 3.505 4.43375 3.25 5.6875 C2.85596563 8.96146208 2.90967705 9.82688102 4.5 12.875 C7.52907908 15.44971722 10.1430947 16.18411619 14 17 C13.44131946 20.59262625 12.29388579 21.82395626 9.5 24.0625 C5.44292079 27.88868853 5.33344282 31.02097091 5.15625 36.41796875 C4.86480818 41.23404482 2.75283198 44.12508715 -0.3125 47.6875 C-6.29386579 52.83425661 -11.11041666 53.55072289 -18.87109375 53.34765625 C-24.61096331 52.70989297 -28.01431664 50.31263471 -31.8125 46 C-36.39856464 39.71053992 -36.79308947 34.72270869 -36 27 C-34.03912007 20.19262707 -29.86696964 16.14831647 -23.75 12.75 C-21 12 -21 12 -18.8515625 12.05078125 C-13.26809479 12.07720144 -10.45559796 10.97453285 -6.37353516 6.99975586 C-4.18413198 4.71725489 -2.07147947 2.39047155 0 0 Z M-22 26 C-23.57210454 29.07585671 -24.03885881 31.18396494 -23.875 34.625 C-22.71989872 37.76027491 -21.80232105 39.13178596 -19 41 C-14.6275261 41.21157132 -11.64198576 40.42799051 -8 38 C-6.96611116 35.00994648 -6.72336936 32.14599555 -7 29 C-9.00179995 25.83015739 -9.00179995 25.83015739 -12 24 C-16.02768404 24 -18.38797823 24.27251133 -22 26 Z " fill="#000000" transform="translate(36,47)"/>
</svg>
