<svg version="1.1" xmlns="http://www.w3.org/2000/svg" width="512px" height="512px" transform="rotate(0) scale(1, 1)">
<path d="M0 0 C4.80301296 3.51524861 6.73179095 8.07481823 8.875 13.4375 C9.1946875 14.17548828 9.514375 14.91347656 9.84375 15.67382812 C11.67350251 20.14876634 12.49150915 23.2073782 11 28 C8.4681575 31.6059575 5.69663665 34.3125647 2.35571289 37.16040039 C-2.16321707 41.0885928 -6.40212098 45.25784055 -10.62890625 49.49609375 C-11.42223862 50.28846939 -12.21557098 51.08084503 -13.03294373 51.89723206 C-14.69889081 53.56250283 -16.36359256 55.22902029 -18.02709961 56.89672852 C-20.55536134 59.43034622 -23.08891661 61.95858167 -25.62304688 64.48632812 C-27.2503207 66.11426283 -28.87728425 67.74250775 -30.50390625 69.37109375 C-31.25201065 70.11717392 -32.00011505 70.86325409 -32.77088928 71.63194275 C-36.84184623 75.72086162 -40.74043072 79.90187972 -44.50791931 84.27210999 C-46.19725292 86.22842689 -47.94100394 88.12383926 -49.71875 90 C-50.65267578 90.99 -50.65267578 90.99 -51.60546875 92 C-52.86848958 93.33333333 -54.13151042 94.66666667 -55.39453125 96 C-59.70892182 100.57343265 -63.89425212 105.23854897 -68 110 C-68.48839355 110.5662207 -68.97678711 111.13244141 -69.47998047 111.71582031 C-70.88525733 113.34986317 -72.28704287 114.98682512 -73.6875 116.625 C-74.72910899 117.84249726 -75.77077741 119.05994368 -76.8125 120.27734375 C-77.3384375 120.89206543 -77.864375 121.50678711 -78.40625 122.14013672 C-79.97623688 123.97226908 -81.54997431 125.80110477 -83.125 127.62890625 C-89.18863443 134.67042204 -95.14590887 141.78249677 -101 149 C-102.00721634 150.22575053 -103.01507076 151.45097692 -104.0234375 152.67578125 C-109.99490207 159.94788972 -115.80602549 167.30455714 -121.41162109 174.86254883 C-125.17522314 179.93007115 -129.04027019 184.9097716 -132.9375 189.875 C-139.8748095 198.74182914 -146.4810055 207.82285389 -153 217 C-153.50241211 217.70479492 -154.00482422 218.40958984 -154.52246094 219.13574219 C-162.4946287 230.32374861 -170.29053498 241.62961583 -178 253 C-178.42458496 253.62519531 -178.84916992 254.25039063 -179.28662109 254.89453125 C-198.83811793 283.74598343 -217.16469738 313.4846971 -234 344 C-234.53044922 344.95793457 -235.06089844 345.91586914 -235.60742188 346.90283203 C-243.15330599 360.56106345 -250.30219621 374.38990366 -257.22265625 388.375 C-257.70041504 389.33970215 -258.17817383 390.3044043 -258.67041016 391.29833984 C-259.51184186 393.00808703 -260.34582419 394.72153799 -261.16943359 396.43994141 C-263.97359096 402.23816872 -267.06842525 405.47161292 -273 408 C-275.515625 408.37109375 -275.515625 408.37109375 -278.25 408.4375 C-279.14203125 408.47746094 -280.0340625 408.51742188 -280.953125 408.55859375 C-288.72903993 407.13300935 -294.25954228 401.1677771 -299.5625 395.6875 C-300.49352539 394.74874023 -300.49352539 394.74874023 -301.44335938 393.79101562 C-303.81765388 391.37710829 -306.17249574 388.968367 -308.3732605 386.39297485 C-313.3538338 380.56617078 -318.71953946 375.1632663 -324.15634155 369.76849365 C-325.84992862 368.0878576 -327.54020777 366.40395371 -329.22973633 364.71923828 C-332.81699813 361.14331463 -336.4081912 357.57135568 -340 354 C-344.16752973 349.85620177 -348.33335975 345.71072339 -352.4949646 341.56097412 C-354.14732532 339.91501894 -355.80270465 338.27214355 -357.45825195 336.62939453 C-362.18859978 331.92182912 -366.78732867 327.17122549 -371.12768555 322.09716797 C-374.95220444 317.81334775 -379.08115289 313.81217888 -383.15634155 309.76849365 C-384.84992862 308.0878576 -386.54020777 306.40395371 -388.22973633 304.71923828 C-391.81699813 301.14331463 -395.4081912 297.57135568 -399 294 C-403.16752973 289.85620177 -407.33335975 285.71072339 -411.4949646 281.56097412 C-413.14732532 279.91501894 -414.80270465 278.27214355 -416.45825195 276.62939453 C-421.22936844 271.88122344 -425.87343904 267.09040996 -430.25082397 261.97180176 C-433.90535476 257.85214192 -437.88289082 254.03863814 -441.80078125 250.171875 C-443.20260113 248.7794633 -444.60441528 247.38704578 -446.00588512 245.99428177 C-449.42915026 242.59381353 -452.85798695 239.19897924 -456.28930664 235.80664062 C-458.22800474 233.88954973 -460.16400555 231.96980689 -462.09721375 230.04718018 C-463.91036516 228.24436094 -465.72762173 226.44565893 -467.5493927 224.65155029 C-468.77658272 223.42942841 -468.77658272 223.42942841 -470.02856445 222.18261719 C-470.74913528 221.46950378 -471.46970612 220.75639038 -472.21211243 220.02166748 C-474.95000155 216.92577852 -475.94856851 214.89147924 -476.1875 210.75 C-474.40024548 205.10603837 -470.55999549 202.57592351 -466 199 C-465.25492187 198.39671875 -464.50984375 197.7934375 -463.7421875 197.171875 C-462.14718304 195.88505784 -460.54511849 194.60696087 -458.9375 193.3359375 C-455.95620153 190.9651709 -453.00034104 188.56560775 -450.04882812 186.15795898 C-447.96343726 184.4586355 -445.8727689 182.76599087 -443.78125 181.07421875 C-441.57238303 179.28606236 -439.38779233 177.48151513 -437.21875 175.64453125 C-432.96667359 172.11326916 -429.79301016 169.48276695 -424 170 C-416.67201173 173.36366675 -410.33173121 179.67518175 -404.08984375 184.7265625 C-399.97342379 188.0430906 -395.77565518 191.24533597 -391.5625 194.4375 C-385.18101728 199.28097858 -378.93270134 204.2631254 -372.73413086 209.33789062 C-367.17740664 213.87937147 -361.51437889 218.25937111 -355.80908203 222.61328125 C-346.7359765 229.56810439 -337.73846371 236.62376359 -328.75 243.6875 C-328.19675049 244.1215918 -327.64350098 244.55568359 -327.07348633 245.00292969 C-324.06886253 247.3629827 -321.07606075 249.73679849 -318.09375 252.125 C-317.45083008 252.63716064 -316.80791016 253.14932129 -316.14550781 253.67700195 C-314.90728227 254.6637229 -313.67210825 255.65428871 -312.44042969 256.64916992 C-309.572913 259.18846633 -309.572913 259.18846633 -306 260 C-304.62787699 258.46804728 -303.3284554 256.87078919 -302.0625 255.25 C-298.63399292 250.96022544 -295.10926854 246.83807621 -291.375 242.8125 C-288.37523711 239.57622425 -285.38802161 236.33711588 -282.5 233 C-278.79983726 228.74000176 -274.99414555 224.57898848 -271.16650391 220.43359375 C-269.17664172 218.27817356 -267.19316724 216.11720107 -265.21459961 213.95141602 C-254.755196 202.56771519 -243.81609669 191.66239486 -232.87548828 180.74511719 C-230.14916462 178.0245405 -227.42742705 175.2994265 -224.70694923 172.57300568 C-222.57934081 170.44176352 -220.44933184 168.31293326 -218.31861496 166.18479919 C-217.31411094 165.18095405 -216.31032626 164.17638848 -215.30733109 163.17103577 C-210.23063483 158.08500372 -205.12061671 153.10941801 -199.66537476 148.42956543 C-197.64782232 146.69768904 -195.70774836 144.89477836 -193.78125 143.0625 C-193.07613281 142.39476562 -192.37101562 141.72703125 -191.64453125 141.0390625 C-190.93683594 140.36617187 -190.22914063 139.69328125 -189.5 139 C-184.1052328 133.87054922 -178.64241348 128.85635484 -173 124 C-172.43974121 123.51756836 -171.87948242 123.03513672 -171.30224609 122.53808594 C-169.68285648 121.14780454 -168.06069474 119.76083625 -166.4375 118.375 C-162.69291792 115.17633321 -158.95679789 111.96956958 -155.25390625 108.72265625 C-148.65518231 102.94254516 -141.98713948 97.32175125 -135.05200195 91.94848633 C-131.36007537 89.08520025 -127.75521982 86.14346595 -124.1875 83.125 C-117.31362431 77.35094442 -110.16537672 71.95187243 -103.01171875 66.53125 C-101.21844906 65.16627579 -99.43446298 63.79074672 -97.65625 62.40625 C-89.32311415 55.92492212 -80.80590571 49.72372212 -72.21728516 43.58642578 C-70.21756305 42.15566227 -68.22348548 40.71742148 -66.23046875 39.27734375 C-56.38983496 32.20983956 -46.32369158 25.47857832 -36.25 18.75 C-35.54471161 18.27805206 -34.83942322 17.80610413 -34.11276245 17.31985474 C-30.05889121 14.60947547 -25.99316802 11.91860453 -21.90991211 9.25268555 C-20.64965321 8.42609876 -19.3931952 7.59368383 -18.14086914 6.75512695 C-16.41068708 5.59753324 -14.66845752 4.46076817 -12.921875 3.328125 C-11.9431543 2.68262695 -10.96443359 2.03712891 -9.95605469 1.37207031 C-6.37816988 -0.28862614 -3.90317623 -0.39205108 0 0 Z " fill="#9cae47" transform="translate(488,52)"/>
</svg>