<?xml version="1.0" encoding="UTF-8"?>
<svg version="1.1" xmlns="http://www.w3.org/2000/svg" width="512" height="512">
<path d="M0 0 C7.70044963 4.45167269 11.02424919 14.64159119 14.8203125 22.28515625 C15.6695076 23.98423378 15.6695076 23.98423378 16.53585815 25.71763611 C17.73284684 28.11462565 18.92830689 30.51230138 20.12109375 32.91137695 C21.9061616 36.50151307 23.69901593 40.08773225 25.4921875 43.67382812 C31.3738867 55.45592123 37.16759535 67.27293719 42.81822205 79.1675415 C48.17976159 90.42437862 53.8167251 101.54280817 59.44458008 112.66821289 C60.83495567 115.41903058 62.22050922 118.17223377 63.60546875 120.92578125 C64.2427314 122.18011711 64.2427314 122.18011711 64.89286804 123.45979309 C65.27779922 124.2262767 65.66273041 124.99276031 66.05932617 125.7824707 C66.39921066 126.45478226 66.73909515 127.12709381 67.08927917 127.81977844 C67.8125 129.5 67.8125 129.5 67.8125 131.5 C68.89660156 131.64397217 69.98070312 131.78794434 71.09765625 131.9362793 C99.58644653 135.73403545 128.04619452 139.75491784 156.48890495 143.88287067 C161.4918944 144.60891432 166.49543507 145.33039929 171.50073242 146.04037476 C176.29150715 146.72027715 181.08011644 147.41383799 185.86747169 148.11740112 C187.65186821 148.37735116 189.43695981 148.63257998 191.22275352 148.88275146 C193.69575827 149.23007867 196.16562568 149.59476635 198.63549805 149.96362305 C199.34957825 150.05981776 200.06365845 150.15601248 200.79937744 150.25512218 C207.35558443 151.2686152 213.04715865 153.28200702 217.25 158.5625 C219.67094646 163.11387934 220.23373522 166.3609303 219.8125 171.5 C216.8398808 179.10858764 211.87185205 183.94368792 206.0625 189.5625 C205.19367188 190.42166016 204.32484375 191.28082031 203.4296875 192.16601562 C199.69678116 195.83446487 195.92912021 199.41313902 191.96777344 202.83374023 C187.90530186 206.36960283 184.09460094 210.10586239 180.3125 213.9375 C179.2925293 214.96315063 179.2925293 214.96315063 178.25195312 216.00952148 C176.10299074 218.17057055 173.95732721 220.33484726 171.8125 222.5 C168.98216163 225.35716017 166.14837327 228.21083454 163.3125 231.0625 C162.67892578 231.70437256 162.04535156 232.34624512 161.39257812 233.00756836 C157.65916526 236.7610586 153.80750114 240.30664425 149.80154419 243.76699829 C144.33389535 248.53081643 139.11710778 253.56927122 133.90942383 258.61352539 C132.46584254 259.99998362 131.00993404 261.3737162 129.54223633 262.73461914 C127.40115156 264.72333223 125.30590465 266.7518756 123.21484375 268.79296875 C122.55669174 269.3871611 121.89853973 269.98135345 121.22044373 270.59355164 C118.54917571 273.27490392 116.86624375 275.20449545 116.7050705 279.08961105 C116.80968849 280.04405735 116.91430649 280.99850365 117.02209473 281.98187256 C117.13791114 283.0466643 117.25372755 284.11145605 117.37305355 285.20851421 C118.07414056 290.4597068 118.92322527 295.671857 119.85375977 300.88696289 C120.05873077 302.0609816 120.26370178 303.23500031 120.47488403 304.44459534 C121.03120942 307.62697161 121.59205492 310.80851354 122.15440488 313.9898293 C122.74521649 317.34168218 123.32846581 320.69484859 123.91209412 324.04795837 C125.77044686 334.71686467 127.63954903 345.38387991 129.51600736 356.04961628 C130.75209205 363.07556445 131.98280889 370.10240574 133.20347828 377.13105005 C133.78167941 380.45827397 134.36344746 383.78478546 134.95395088 387.10984993 C135.61130629 390.81928725 136.25716262 394.53056452 136.90063477 398.24243164 C137.09542923 399.32482117 137.29022369 400.40721069 137.49092102 401.5223999 C140.48221348 419.00578407 140.48221348 419.00578407 137.1875 425.4375 C133.8017428 429.80334482 130.81919319 431.93206797 125.5 433.4375 C117.63741778 433.57076411 110.49299037 429.57204795 103.625 426.0625 C102.7575415 425.62421875 101.89008301 425.1859375 100.99633789 424.734375 C93.94382753 421.14267242 87.00813995 417.35247527 80.08129883 413.52563477 C71.24745925 408.67474395 62.28538375 404.08630977 53.3125 399.5 C43.45955185 394.46233077 33.63389589 389.39779054 23.9375 384.0625 C23.09002197 383.59827637 22.24254395 383.13405273 21.36938477 382.65576172 C17.88838896 380.74707935 14.41041786 378.83371449 10.94384766 376.89892578 C8.05474728 375.29090015 5.15377043 373.7063431 2.25 372.125 C1.37424316 371.62943604 0.49848633 371.13387207 -0.40380859 370.62329102 C-1.22059082 370.18299561 -2.03737305 369.7427002 -2.87890625 369.2890625 C-3.59248291 368.89412598 -4.30605957 368.49918945 -5.04125977 368.09228516 C-8.10011984 367.24814973 -9.35994378 368.08825318 -12.1875 369.5 C-12.75355453 369.77750092 -13.31960907 370.05500183 -13.90281677 370.34091187 C-15.94435567 371.35094863 -17.97070895 372.38764781 -19.99609375 373.4296875 C-20.75011978 373.81577179 -21.50414581 374.20185608 -22.28102112 374.59963989 C-24.73043802 375.8553414 -27.17785541 377.1148765 -29.625 378.375 C-30.46538818 378.80683594 -31.30577637 379.23867188 -32.17163086 379.68359375 C-42.40382951 384.94358184 -52.57932575 390.27904218 -62.64038086 395.86083984 C-72.35083362 401.21027779 -82.24576123 406.20227977 -92.11956787 411.2411499 C-102.83015489 416.7093648 -113.47375922 422.26122404 -123.98242188 428.11132812 C-124.77455078 428.55154297 -125.56667969 428.99175781 -126.3828125 429.4453125 C-127.05328613 429.82187988 -127.72375977 430.19844727 -128.41455078 430.58642578 C-133.70315392 433.31156389 -139.39181684 433.15979317 -145.1875 432.5 C-149.27180252 430.84632079 -151.54176348 428.37486884 -154.125 424.875 C-156.8992294 416.0627419 -154.76599558 406.4966926 -153.18383789 397.61230469 C-152.97086563 396.37348541 -152.75789337 395.13466614 -152.53846741 393.85830688 C-151.95824613 390.49373739 -151.36996865 387.13077153 -150.77799153 383.76826382 C-150.15774897 380.23334036 -149.54825189 376.69656476 -148.93760681 373.15997314 C-147.78090949 366.47023688 -146.61503516 359.78213576 -145.44562477 353.09461141 C-143.85874293 344.01711985 -142.28494432 334.93736273 -140.71072471 325.8576684 C-140.3315621 323.67083136 -139.95235203 321.48400255 -139.57310486 319.29718018 C-139.45008371 318.58777385 -139.32706257 317.87836752 -139.20031351 317.14746404 C-138.47182719 312.94834781 -137.74115558 308.74961915 -137.00839818 304.55124617 C-136.66236741 302.56850985 -136.31679732 300.58569315 -135.97123718 298.60287476 C-135.55104586 296.19236415 -135.13004752 293.78199401 -134.70806885 291.37179565 C-133.78810616 286.08969207 -132.90207729 280.81399766 -132.1875 275.5 C-132.77448669 275.23865768 -133.36147339 274.97731537 -133.96624756 274.70805359 C-136.31930327 273.42831728 -137.84958484 272.07288362 -139.72753906 270.17114258 C-140.40214172 269.49316116 -141.07674438 268.81517975 -141.77178955 268.11665344 C-142.49163025 267.38335312 -143.21147095 266.6500528 -143.953125 265.89453125 C-144.70535339 265.13710129 -145.45758179 264.37967133 -146.23260498 263.59928894 C-148.63903225 261.17505694 -151.03869238 258.74427017 -153.4375 256.3125 C-155.82283204 253.89940908 -158.20965052 251.48783879 -160.59954834 249.07926941 C-162.08502375 247.58169436 -163.56782038 246.08145555 -165.04742432 244.57807922 C-168.97834373 240.60980231 -173.01573742 236.86029285 -177.246521 233.21488953 C-180.45996117 230.37575789 -183.4583056 227.33253414 -186.46875 224.28125 C-187.12653442 223.61967896 -187.78431885 222.95810791 -188.46203613 222.27648926 C-191.23816558 219.48421856 -194.00821537 216.68594584 -196.77880859 213.88818359 C-198.8191708 211.82959102 -200.86264331 209.77412097 -202.90625 207.71875 C-203.82380066 206.78875183 -203.82380066 206.78875183 -204.7598877 205.83996582 C-208.50991224 202.06909509 -212.39015525 198.51329131 -216.41452026 195.0369873 C-219.73839616 192.15553584 -222.86689669 189.08539108 -226 186 C-226.65419922 185.37480469 -227.30839844 184.74960938 -227.98242188 184.10546875 C-232.92519303 179.22833194 -235.72724169 175.11631532 -236.625 168.0625 C-236.08343648 163.65262562 -234.91802687 160.04092388 -232.1875 156.5 C-228.02137292 153.35081559 -224.73464184 151.87442196 -219.60107422 151.0144043 C-218.92555952 150.89885287 -218.25004482 150.78330145 -217.55405998 150.66424847 C-215.10149378 150.25483763 -212.64557182 149.87494391 -210.1875 149.5 C-209.2014402 149.34825443 -208.2153804 149.19650887 -207.19944 149.04016495 C-199.3361377 147.83949892 -191.46500444 146.69511616 -183.59185266 145.56109452 C-180.16522832 145.06687837 -176.73912924 144.56904514 -173.31295776 144.07170105 C-167.57956767 143.23996948 -161.84581864 142.41075229 -156.11181641 141.58325195 C-149.48324735 140.62663599 -142.85516979 139.6666736 -136.22735894 138.7048195 C-129.14545983 137.67708437 -122.06324861 136.65151379 -114.98092413 135.62671447 C-112.94531249 135.33203125 -110.90975623 135.03696797 -108.87421036 134.74183083 C-105.09754284 134.19439492 -101.32052341 133.64941377 -97.54345703 133.10473633 C-96.41629272 132.94113617 -95.28912842 132.77753601 -94.12780762 132.60897827 C-93.10482574 132.46185898 -92.08184387 132.31473969 -91.02786255 132.16316223 C-90.13606859 132.0343205 -89.24427464 131.90547876 -88.32545662 131.77273273 C-86.1875 131.5 -86.1875 131.5 -84.1875 131.5 C-83.91727524 130.6339061 -83.64705048 129.76781219 -83.36863708 128.87547302 C-82.2176775 125.58624174 -80.8558712 122.60279186 -79.28930664 119.49243164 C-78.704319 118.32583511 -78.11933136 117.15923859 -77.51661682 115.95729065 C-76.876976 114.69157276 -76.23732211 113.42586148 -75.59765625 112.16015625 C-74.93142477 110.83398385 -74.26561575 109.50759914 -73.60020447 108.18101501 C-71.84383691 104.68156439 -70.08305168 101.18435767 -68.32092285 97.68780518 C-65.19974116 91.49364881 -62.08433345 85.29659217 -58.97265625 79.09765625 C-58.63471291 78.42463911 -58.29676956 77.75162197 -57.94858551 77.05821037 C-52.29726071 65.79596307 -46.81643955 54.45962215 -41.41439819 43.07559204 C-38.31014936 36.55893187 -35.14242244 30.07360677 -31.94189453 23.60375977 C-31.17337147 22.04461818 -30.40988563 20.48298578 -29.65087891 18.91918945 C-28.52093188 16.59261856 -27.37557094 14.27423564 -26.2265625 11.95703125 C-25.8931485 11.26237259 -25.5597345 10.56771393 -25.21621704 9.852005 C-22.67006621 4.78147375 -19.82759028 1.92707582 -14.875 -0.75 C-9.55095447 -2.23578015 -5.0512891 -2.15394592 0 0 Z " fill="#000000" transform="translate(264.1875,40.5)"/>
</svg>
